Coordinates
version=1
nRows=18
nColumns=38
inDegrees=no

Units are S.I. units (second, meters, Newtons, ...)
If the header above contains a line with 'inDegrees', this indicates whether rotational values are in degrees (yes) or radians (no).

endheader
time	pelvis_tilt	pelvis_list	pelvis_rotation	pelvis_tx	pelvis_ty	pelvis_tz	hip_flexion_r	hip_adduction_r	hip_rotation_r	knee_angle_r	ankle_angle_r	subtalar_angle_r	mtp_angle_r	hip_flexion_l	hip_adduction_l	hip_rotation_l	knee_angle_l	ankle_angle_l	subtalar_angle_l	mtp_angle_l	lumbar_extension	lumbar_bending	lumbar_rotation	arm_flex_r	arm_add_r	arm_rot_r	elbow_flex_r	pro_sup_r	wrist_flex_r	wrist_dev_r	arm_flex_l	arm_add_l	arm_rot_l	elbow_flex_l	pro_sup_l	wrist_flex_l	wrist_dev_l
75	-2.92145	1.17407	1.23816	0.765953	-0.59123	0.996076	0.345327	0.0520547	-0.0861197	0	-0.276235	0	0	0.240033	-0.222301	-0.278161	0	-0.32397	0	0	0.416218	0.164874	-0.127226	-0.0538567	-0.250458	0.423784	0.35295	1.45605	0	0	-0.116523	-0.258701	0.686525	0.476151	1.06257	0	0
75.01	-2.92107	1.17485	1.23675	0.765734	-0.590971	0.996124	0.345088	0.0524607	-0.0840679	0	-0.276084	0	0	0.23938	-0.222734	-0.280632	0	-0.323944	0	0	0.41418	0.165028	-0.125885	-0.0536014	-0.249521	0.415267	0.353458	1.46786	0	0	-0.115284	-0.258597	0.68768	0.475676	1.06148	0	0
75.02	-2.92049	1.17566	1.23563	0.765512	-0.590831	0.99619	0.344523	0.0528512	-0.083102	0	-0.275966	0	0	0.238528	-0.223106	-0.281381	0	-0.32386	0	0	0.412482	0.164917	-0.12516	-0.0531513	-0.248859	0.410751	0.353531	1.475	0	0	-0.114531	-0.258484	0.688367	0.475118	1.06091	0	0
75.03	-2.91943	1.17636	1.23455	0.765309	-0.590731	0.99625	0.343854	0.0533327	-0.0830084	0	-0.275854	0	0	0.237875	-0.223598	-0.281366	0	-0.323727	0	0	0.41115	0.164778	-0.125207	-0.052888	-0.248251	0.406624	0.353805	1.48175	0	0	-0.114048	-0.258364	0.688912	0.474514	1.0604	0	0
75.04	-2.91578	1.17978	1.23101	0.765134	-0.59058	0.996539	0.340382	0.0538637	-0.0848376	0	-0.274325	0	0	0.234167	-0.22416	-0.282115	0	-0.322887	0	0	0.40528	0.165085	-0.123856	-0.0551546	-0.242049	0.357341	0.354172	1.55517	0	0	-0.110501	-0.258929	0.696829	0.473282	1.05233	0	0
75.05	-2.91684	1.17829	1.23193	0.7649	-0.590428	0.996407	0.342442	0.0542682	-0.0849264	0	-0.274469	0	0	0.236256	-0.224619	-0.281451	0	-0.322959	0	0	0.407232	0.164673	-0.124584	-0.0531627	-0.245962	0.388288	0.354988	1.50896	0	0	-0.112329	-0.258132	0.69051	0.473285	1.05776	0	0
75.06	-2.91561	1.17876	1.23079	0.764688	-0.590303	0.996469	0.342012	0.0548394	-0.084786	0	-0.274235	0	0	0.235915	-0.225239	-0.281365	0	-0.322779	0	0	0.406068	0.164668	-0.124441	-0.0530535	-0.245607	0.385423	0.35556	1.51272	0	0	-0.111698	-0.257837	0.691109	0.472375	1.05715	0	0
75.07	-2.90992	1.18311	1.22505	0.76455	-0.590066	0.996959	0.337257	0.0558213	-0.0850166	0	-0.274113	0	0	0.231102	-0.226236	-0.285694	0	-0.318035	0	0	0.397807	0.165405	-0.122948	-0.0532129	-0.241971	0.354853	0.356915	1.55779	0	0	-0.107218	-0.258158	0.699205	0.470572	1.04977	0	0
75.08	-2.91161	1.18212	1.22701	0.764434	-0.590196	0.996714	0.338342	0.0554691	-0.0863042	0	-0.274072	0	0	0.241689	-0.232043	-0.29979	0	-0.31455	0	0	0.400154	0.16482	-0.123963	-0.052634	-0.245256	0.376854	0.358064	1.52509	0	0	-0.109744	-0.257249	0.693346	0.470952	1.05532	0	0
75.09	-2.91188	1.1807	1.22665	0.763956	-0.590062	0.996654	0.339956	0.0566282	-0.0844531	0	-0.274084	0	0	0.234317	-0.227261	-0.283304	0	-0.317526	0	0	0.401584	0.164911	-0.123271	-0.0530087	-0.244485	0.374918	0.357644	1.52746	0	0	-0.110114	-0.257412	0.693775	0.470531	1.055	0	0
75.1	-2.90898	1.1829	1.22444	0.76384	-0.589821	0.996985	0.337514	0.0570044	-0.0843373	0	-0.274268	0	0	0.232033	-0.227555	-0.280812	0	-0.319552	0	0	0.39688	0.164745	-0.123143	-0.0513292	-0.243859	0.372901	0.357297	1.52907	0	0	-0.107958	-0.257271	0.695409	0.469239	1.05484	0	0
75.11	-2.90607	1.18561	1.2216	0.76362	-0.589628	0.997228	0.33485	0.0574283	-0.085834	0	-0.2743	0	0	0.229072	-0.228066	-0.280879	0	-0.320878	0	0	0.391638	0.164863	-0.121858	-0.0503228	-0.243259	0.369289	0.357653	1.53122	0	0	-0.105523	-0.257551	0.698443	0.468442	1.05451	0	0
75.12	-2.90433	1.18713	1.2201	0.763363	-0.589494	0.997363	0.333499	0.0577837	-0.0872382	0	-0.272576	0	0	0.227651	-0.228602	-0.280571	0	-0.321339	0	0	0.388396	0.164848	-0.12042	-0.0513004	-0.24026	0.347092	0.357552	1.56283	0	0	-0.103212	-0.258392	0.705035	0.468105	1.04868	0	0
75.13	-2.90558	1.18603	1.22113	0.763054	-0.589339	0.997243	0.335438	0.05806	-0.0887022	0	-0.272031	0	0	0.229328	-0.229093	-0.279773	0	-0.320813	0	0	0.389331	0.16456	-0.120196	-0.0513762	-0.240169	0.347083	0.357784	1.56402	0	0	-0.103936	-0.25847	0.704222	0.468523	1.04811	0	0
75.14	-2.90488	1.18632	1.22038	0.762779	-0.589202	0.997271	0.33554	0.0585421	-0.089683	0	-0.272085	0	0	0.229283	-0.229813	-0.279326	0	-0.320434	0	0	0.388162	0.164562	-0.120261	-0.0500122	-0.241785	0.35947	0.358398	1.54595	0	0	-0.104316	-0.258197	0.701591	0.468492	1.05065	0	0
75.15	-2.90374	1.18562	1.21964	0.762521	-0.589066	0.997212	0.336254	0.0594071	-0.0888451	0	-0.271723	0	0	0.230013	-0.230812	-0.279347	0	-0.320835	0	0	0.388257	0.164859	-0.120644	-0.0501991	-0.241849	0.358698	0.359479	1.54775	0	0	-0.104386	-0.258259	0.702164	0.46841	1.05024	0	0
75.16	-2.90417	1.18319	1.22068	0.76226	-0.589036	0.997063	0.338525	0.0602261	-0.0870695	0	-0.271553	0	0	0.23316	-0.231949	-0.277063	0	-0.321059	0	0	0.391534	0.164888	-0.121749	-0.0509154	-0.241677	0.358212	0.359501	1.54948	0	0	-0.105614	-0.258183	0.702444	0.468106	1.04989	0	0
75.17	-2.90328	1.18451	1.21985	0.761997	-0.588984	0.997169	0.337076	0.0603775	-0.0862875	0	-0.271326	0	0	0.232164	-0.232404	-0.277023	0	-0.320735	0	0	0.389664	0.164683	-0.121088	-0.0504687	-0.241395	0.357602	0.359287	1.55103	0	0	-0.10518	-0.258422	0.703335	0.467964	1.04984	0	0
